<?xml version="1.0" encoding="utf-8"?>
<!-- Generator: Adobe Illustrator 25.1.0, SVG Export Plug-In . SVG Version: 6.00 Build 0)  -->
<svg version="1.1" xmlns="http://www.w3.org/2000/svg" xmlns:xlink="http://www.w3.org/1999/xlink" x="0px" y="0px"
	 viewBox="0 0 310.6 486.4" style="enable-background:new 0 0 310.6 486.4;" xml:space="preserve">
<style type="text/css">
	.st0{fill:#999999;stroke:#000000;stroke-miterlimit:10;}
	.st1{fill:#FFFFFF;stroke:#000000;stroke-miterlimit:10;}
</style>
<g id="Layer_2">
	<circle class="st0" cx="162.4" cy="239.1" r="146"/>
	<circle class="st1" cx="162.4" cy="239.1" r="136"/>
</g>
<g id="Layer_1">
	<g id="Layer_2_1_">
		<g id="Layer_2-2">
			<path d="M61.9,432.8l-0.9-0.4c31.7-36.4,64.7-90.5,91.5-130.5c38.8-57.6,55.3-95.5,70.6-143.4c11.7-36.5,12.3-48.5,13.6-59.8
				c-7.8,10.2-17.9,22.9-65.1,64.1c-36.3,31.6-72.5,47.5-117.3,66.7l-0.3-0.4c43.6-20.2,84-46.8,119.7-79c52-46.8,81.7-95.5,82-96
				l0.6-0.1l0.4,0.4c-0.1,0.6-4.8,62.2-19,103.3c-16.6,47.9-47.4,110-89.6,168.3C120.2,364.9,93.8,396.4,61.9,432.8z"/>
		</g>
	</g>
</g>
</svg>
